<?xml version="1.0" standalone="no"?><!DOCTYPE svg PUBLIC "-//W3C//DTD SVG 1.1//EN" "http://www.w3.org/Graphics/SVG/1.1/DTD/svg11.dtd"><svg t="1669555822528" class="icon" viewBox="0 0 1024 1024" version="1.1" xmlns="http://www.w3.org/2000/svg" p-id="1234" xmlns:xlink="http://www.w3.org/1999/xlink" width="200" height="200"><path d="M784.4352 916.4288H257.3824c-58.4704 0-105.8816-47.4112-105.8816-105.8816V209.6128c0-58.4704 47.4112-105.8816 105.8816-105.8816h527.0528c58.4704 0 105.8816 47.4112 105.8816 105.8816v600.9344c-0.0512 58.4704-47.4112 105.8816-105.8816 105.8816z" fill="#FF5A5A" p-id="1235"></path><path d="M728.6272 916.4288h55.808c58.4704 0 105.8816-47.4112 105.8816-105.8816V209.6128c0-58.4704-47.4112-105.8816-105.8816-105.8816h-89.088c-1.28 2.8672-1.9968 4.5568-1.9968 4.5568s93.5936 19.8144 93.5936 93.5936v628.0192c0 26.1632-6.0416 73.6768-58.3168 86.528z" fill="#FF3B3B" p-id="1236"></path><path d="M784.4352 931.7888H257.3824c-66.8672 0-121.2416-54.3744-121.2416-121.2416V209.6128c0-66.8672 54.3744-121.2416 121.2416-121.2416h527.0528c66.8672 0 121.2416 54.3744 121.2416 121.2416v600.9344c-0.0512 66.8672-54.4256 121.2416-121.2416 121.2416zM257.3824 119.1424c-49.92 0-90.5216 40.6016-90.5216 90.5216v600.9344c0 49.92 40.6016 90.5216 90.5216 90.5216h527.0528c49.92 0 90.5216-40.6016 90.5216-90.5216V209.6128c0-49.92-40.6016-90.5216-90.5216-90.5216H257.3824z" fill="#333333" p-id="1237"></path><path d="M784.4352 103.7824H257.3824c-58.4704 0-105.8816 47.4112-105.8816 105.8816v81.2544c64.3584 38.4 199.2192 104.192 367.7184 104.192 166.2976 0 300.9536-64.4096 371.0464-106.3424V209.6128c0-58.4704-47.36-105.8304-105.8304-105.8304z" fill="#F5D126" p-id="1238"></path><path d="M784.4352 103.7824h-89.088c-1.28 2.8672-1.9968 4.5568-1.9968 4.5568s93.5936 19.8144 93.5936 93.5936v138.496c42.24-17.3568 77.2608-36.0448 103.3728-51.6608V209.6128c-0.0512-58.4704-47.4112-105.8304-105.8816-105.8304z" fill="#F2B200" p-id="1239"></path><path d="M519.2192 410.4704c-171.6736 0-308.992-66.6112-375.6032-106.3424a15.31392 15.31392 0 0 1-7.4752-13.2096V209.6128c0-66.8672 54.3744-121.2416 121.2416-121.2416h527.0528c66.8672 0 121.2416 54.3744 121.2416 121.2416V288.768c0 5.4272-2.816 10.3936-7.4752 13.1584-67.7888 40.5504-207.104 108.544-378.9824 108.544zM166.8608 282.112c66.3552 38.4 194.2528 97.6384 352.3584 97.6384 158.4128 0 288.256-60.5184 355.6864-99.7888V209.6128c0-49.92-40.6016-90.5216-90.5216-90.5216H257.3824c-49.92 0-90.5216 40.6016-90.5216 90.5216V282.112z m723.4048 6.656z" fill="#333333" p-id="1240"></path><path d="M520.9088 395.1104m-127.6416 0a127.6416 127.6416 0 1 0 255.2832 0 127.6416 127.6416 0 1 0-255.2832 0Z" fill="#FF6464" p-id="1241"></path><path d="M520.9088 267.4688c-10.1888 0-20.0704 1.2288-29.5424 3.4816 56.2688 13.312 98.0992 63.8464 98.0992 124.16s-41.8816 110.848-98.0992 124.16c9.472 2.2528 19.3536 3.4816 29.5424 3.4816 70.5024 0 127.6416-57.1392 127.6416-127.6416s-57.1392-127.6416-127.6416-127.6416z" fill="#FF3B3B" p-id="1242"></path><path d="M520.9088 538.112c-78.848 0-143.0016-64.1536-143.0016-143.0016s64.1536-143.0016 143.0016-143.0016 143.0016 64.1536 143.0016 143.0016-64.1536 143.0016-143.0016 143.0016z m0-255.2832c-61.9008 0-112.2816 50.3808-112.2816 112.2816s50.3808 112.2816 112.2816 112.2816 112.2816-50.3808 112.2816-112.2816-50.3808-112.2816-112.2816-112.2816z" fill="#333333" p-id="1243"></path><path d="M457.5232 408.1664a15.4112 15.4112 0 0 1-15.2576-13.568c-4.4032-37.376 22.4256-71.424 59.8016-75.8784 8.2944-0.9728 16.0768 5.0176 17.0496 13.4656 0.9728 8.3968-5.0176 16.0768-13.4656 17.0496-20.5824 2.4576-35.328 21.1456-32.9216 41.728 0.9728 8.448-5.0176 16.0768-13.4656 17.0496-0.5632 0.1024-1.1776 0.1536-1.7408 0.1536zM238.4384 740.2496c-8.4992 0-15.36-6.8608-15.36-15.36v-182.3232c0-8.4992 6.8608-15.36 15.36-15.36s15.36 6.8608 15.36 15.36v182.3232c0 8.448-6.912 15.36-15.36 15.36zM238.4384 502.1184c-8.4992 0-15.36-6.8608-15.36-15.36V470.016c0-8.4992 6.8608-15.36 15.36-15.36s15.36 6.8608 15.36 15.36v16.7424c0 8.4992-6.912 15.36-15.36 15.36zM228.9664 257.536c-8.4992 0-15.36-6.8608-15.36-15.36v-18.4832c0-36.0448 29.3376-65.3824 65.3824-65.3824H372.736c8.4992 0 15.36 6.8608 15.36 15.36s-6.8608 15.36-15.36 15.36H278.9376c-19.0976 0-34.6624 15.5648-34.6624 34.6624v18.4832c0.0512 8.448-6.8608 15.36-15.3088 15.36z" fill="#FFFFFF" p-id="1244"></path></svg>